<svg width="203" height="77" viewBox="0 0 203 77" fill="none" xmlns="http://www.w3.org/2000/svg">
<g id="Frame 37239">
<g id="Group">
<path id="Vector" d="M30.3667 0H37.8761V0.919586C35.4895 0.980892 34.2962 2.37049 34.2962 5.10881C34.2962 5.3336 34.2962 5.57882 34.3168 5.84448L35.9216 25.2988C36.1067 27.3628 36.4565 28.7524 36.9914 29.4472C37.5263 30.142 38.4933 30.5303 39.8717 30.6733V31.5929H28.4328V30.6529C29.6466 30.4485 30.5107 30.0602 31.0045 29.4676C31.4982 28.875 31.7451 27.9554 31.7451 26.7293C31.7451 26.4841 31.7451 26.198 31.7245 25.8914L30.0375 5.47664L19.1541 31.5724H18.3105L7.5711 5.53795L5.78119 24.9514C5.76062 25.258 5.76062 25.5441 5.76062 25.8097C5.76062 28.5276 7.13905 30.142 9.89592 30.6529V31.5724H0V30.6529C1.31671 30.4689 2.2631 29.9989 2.85973 29.2633C3.45637 28.5276 3.84727 27.0358 4.07358 24.8288L6.0075 3.10616C4.87595 1.92091 3.47694 1.18524 1.85163 0.919586V0H9.89592L20.0593 24.8493L30.3667 0Z" fill="#4A91C3"/>
<path id="Vector_2" d="M74.4354 11.5255V15.4286C76.7191 12.8333 79.1056 11.5255 81.5333 11.5255C83.4261 11.5255 85.0103 12.159 86.2652 13.4464C87.5202 14.7338 88.158 16.4299 88.158 18.5348V27.3423C88.158 28.6911 88.3843 29.5698 88.837 30.0194C89.2896 30.4485 90.1742 30.6733 91.491 30.6733V31.5929H80.9984V30.6529C82.2945 30.6529 83.1792 30.4894 83.673 30.1624C84.1462 29.8354 84.3931 29.1815 84.3931 28.2415V18.0239C84.3931 16.6547 83.9816 15.5716 83.1586 14.7542C82.3357 13.9368 81.2864 13.5486 80.0109 13.5486C78.1592 13.5486 76.3076 14.8155 74.4354 17.3699V26.9132C74.4354 28.5276 74.6412 29.5698 75.0732 29.9989C75.4847 30.4485 76.3693 30.6529 77.7272 30.6529V31.5724H67.3787V30.6529C68.8805 30.6529 69.8063 30.4076 70.1355 29.9376C70.4853 29.4676 70.6499 28.4459 70.6499 26.8928V15.8782C70.6499 14.7134 70.4441 13.9368 70.0327 13.569C69.6212 13.2012 68.7365 13.0172 67.3787 13.0172V12.0977L73.5096 11.505H74.4354V11.5255Z" fill="#4A91C3"/>
<path id="Vector_3" d="M75.5259 41.6266V44.9167C76.7809 43.711 77.9125 42.8731 78.9411 42.3827C79.9698 41.8922 81.1014 41.647 82.3769 41.647C84.9281 41.647 87.0471 42.6075 88.7342 44.5488C90.4212 46.4697 91.2647 48.9015 91.2647 51.8238C91.2647 54.8278 90.3389 57.3413 88.4873 59.3235C86.6357 61.3057 84.3109 62.3071 81.4923 62.3071C79.5583 62.3071 77.5833 61.5305 75.5465 59.9979V72.8312C75.5465 74.1595 75.7728 75.0382 76.246 75.4469C76.6986 75.8761 77.5627 76.0804 78.8383 76.0804V77H68.3046V76.0804C69.6624 76.0804 70.5677 75.8965 71.0409 75.5082C71.514 75.1404 71.7404 74.4047 71.7404 73.3625V46.1836C71.7404 44.8758 71.5346 44.0379 71.1437 43.6701C70.7528 43.3023 69.8064 43.1388 68.3046 43.1388V42.2192L74.6001 41.6266H75.5259ZM75.5259 46.3676V58.5878C77.0689 60.2022 78.8794 61.0196 80.9573 61.0196C82.7061 61.0196 84.1874 60.2022 85.3601 58.5674C86.5534 56.9326 87.1294 54.9095 87.1294 52.4777C87.1294 49.862 86.5328 47.6959 85.3601 45.9997C84.1668 44.3036 82.665 43.4453 80.8339 43.4453C79.0029 43.4249 77.2335 44.4058 75.5259 46.3676Z" fill="#4A91C3"/>
<path id="Vector_4" d="M100.029 35.5369H100.975V42.0966H107.806V43.5271H100.975V56.0947C100.975 57.4026 101.284 58.4039 101.901 59.1191C102.518 59.8344 103.382 60.1818 104.535 60.1818C105.872 60.1818 107.086 59.5483 108.197 58.3017L108.814 59.0374C107.106 61.2035 105.111 62.2866 102.889 62.2866C101.202 62.2866 99.8438 61.7553 98.7946 60.6927C97.7453 59.63 97.231 58.2609 97.231 56.6056V43.5271H93.5277V42.587C96.2229 41.2383 98.4037 38.8883 100.029 35.5369Z" fill="#4A91C3"/>
<path id="Vector_5" d="M117.619 41.6266H118.566V58.0565C118.566 59.1396 118.792 59.8548 119.265 60.2227C119.739 60.5905 120.603 60.754 121.837 60.754V61.6736H111.077V60.754C112.641 60.754 113.669 60.5701 114.101 60.2227C114.554 59.8753 114.78 59.1396 114.78 58.0565V46.0406C114.78 44.8554 114.575 44.0788 114.163 43.6906C113.752 43.3227 112.723 43.1184 111.077 43.1184V42.1988L117.619 41.6266ZM116.735 31.5316C117.393 31.5316 117.969 31.7564 118.422 32.2264C118.874 32.676 119.121 33.2481 119.121 33.9021C119.121 34.556 118.895 35.1282 118.422 35.6186C117.949 36.0886 117.393 36.3339 116.735 36.3339C116.076 36.3339 115.48 36.0886 115.007 35.6186C114.513 35.1486 114.266 34.5764 114.266 33.9021C114.266 33.2481 114.513 32.676 114.986 32.2264C115.48 31.7564 116.056 31.5316 116.735 31.5316Z" fill="#4A91C3"/>
<path id="Vector_6" d="M151.422 40.8296H152.368V57.2596C152.368 58.3426 152.595 59.0579 153.068 59.4257C153.541 59.7935 154.405 59.957 155.64 59.957V60.8766H144.88V59.957C146.443 59.957 147.472 59.7731 147.904 59.4257C148.356 59.0783 148.583 58.3426 148.583 57.2596V45.2436C148.583 44.0584 148.377 43.2819 147.966 42.8936C147.554 42.5258 146.525 42.3214 144.88 42.3214V41.4018L151.422 40.8296ZM150.558 30.7346C151.216 30.7346 151.792 30.9594 152.245 31.4294C152.697 31.879 152.944 32.4512 152.944 33.1051C152.944 33.759 152.718 34.3312 152.245 34.8217C151.772 35.2917 151.216 35.5369 150.558 35.5369C149.899 35.5369 149.303 35.2917 148.83 34.8217C148.336 34.3517 148.089 33.7795 148.089 33.1051C148.089 32.4512 148.336 31.879 148.809 31.4294C149.303 30.9594 149.879 30.7346 150.558 30.7346Z" fill="#4A91C3"/>
<path id="Vector_7" d="M142.061 41.6266V48.5133H141.114C140.703 46.715 139.901 45.3049 138.728 44.2627C137.555 43.2205 136.156 42.7097 134.531 42.7097C132.576 42.7097 130.992 43.4658 129.758 44.978C128.523 46.4902 127.906 48.4315 127.906 50.8429C127.906 53.4995 128.626 55.7882 130.087 57.7296C131.548 59.6709 133.276 60.6314 135.272 60.6314C136.609 60.6314 137.926 60.2635 139.242 59.5483C140.559 58.8331 141.67 57.8317 142.616 56.5647V57.9952C140.477 60.8561 137.596 62.3071 133.955 62.3071C131.054 62.3071 128.667 61.3875 126.836 59.5687C125.005 57.7296 124.079 55.3591 124.079 52.4368C124.079 49.4329 125.067 46.8989 127.042 44.794C129.017 42.6892 131.404 41.647 134.202 41.647C135.457 41.647 136.835 41.8922 138.378 42.4031C139.036 42.6279 139.51 42.7301 139.757 42.7301C140.312 42.7301 140.765 42.3623 141.094 41.647H142.061V41.6266Z" fill="#4A91C3"/>
<path id="Vector_8" d="M176.625 56.6669V58.0974C175.431 59.6096 174.218 60.6722 172.983 61.3262C171.749 61.9801 170.267 62.2866 168.519 62.2866C165.453 62.2866 162.923 61.3262 160.927 59.4257C158.931 57.5252 157.923 55.0934 157.923 52.1507C157.923 49.1876 158.87 46.6945 160.783 44.6714C162.696 42.6484 165.021 41.6266 167.778 41.6266C170.062 41.6266 172.037 42.3827 173.744 43.9153C175.452 45.448 176.295 47.2667 176.295 49.3715V49.7802H161.853V50.0459C161.853 52.1916 162.182 54.0716 162.84 55.6656C163.499 57.2595 164.466 58.4857 165.721 59.3848C166.976 60.284 168.313 60.7335 169.671 60.7335C170.946 60.7335 172.057 60.4679 172.963 59.9366C173.888 59.4052 175.102 58.3222 176.625 56.6669ZM161.853 48.8402H172.551V48.4724C172.551 46.7354 172.057 45.3458 171.049 44.324C170.041 43.3023 168.786 42.7914 167.305 42.7914C165.721 42.7914 164.445 43.3227 163.478 44.4058C162.491 45.4684 161.956 46.9398 161.853 48.8402Z" fill="#4A91C3"/>
<path id="Vector_9" d="M185.944 41.6266V45.5297C188.228 42.9344 190.615 41.6266 193.042 41.6266C194.935 41.6266 196.519 42.2601 197.774 43.5475C199.029 44.8349 199.667 46.531 199.667 48.6359V57.4435C199.667 58.7922 199.893 59.6709 200.346 60.1205C200.799 60.5496 201.683 60.7744 203 60.7744V61.694H192.507V60.7744C193.804 60.7744 194.688 60.6109 195.182 60.284C195.655 59.957 195.902 59.3031 195.902 58.3631V48.1454C195.902 46.7763 195.491 45.6932 194.668 44.8758C193.845 44.0584 192.795 43.6701 191.52 43.6701C189.668 43.6701 187.817 44.9371 185.944 47.4915V57.0143C185.944 58.6287 186.15 59.6709 186.582 60.1C186.994 60.5496 187.878 60.754 189.236 60.754V61.6736H178.888V60.754C180.39 60.754 181.315 60.5088 181.645 60.0387C181.994 59.5687 182.159 58.547 182.159 56.9939V45.9793C182.159 44.8145 181.953 44.0379 181.542 43.6701C181.13 43.3023 180.246 43.1184 178.888 43.1184V42.1988L185.019 41.6062H185.944V41.6266Z" fill="#4A91C3"/>
<g id="Group_2">
<path id="Vector_10" d="M65.3624 21.2935C65.3624 24.2362 64.3337 26.6884 62.2969 28.6502C60.2396 30.612 57.6884 31.5929 54.623 31.5929C51.5575 31.5929 48.9858 30.612 46.949 28.6502C44.8917 26.6884 43.8835 24.2362 43.8835 21.2935C43.8835 18.31 44.9122 15.8373 46.949 13.8755C48.9858 11.9138 51.5575 10.9329 54.6436 10.9329C57.7296 10.9329 60.3013 11.9138 62.3381 13.8755C64.3337 15.8373 65.3624 18.31 65.3624 21.2935ZM61.2683 21.314C61.2683 18.5348 60.6716 16.2869 59.4784 14.5703C58.2851 12.8538 56.6598 12.0159 54.6024 12.0159C52.545 12.0159 50.9197 12.8538 49.7265 14.5295C48.5332 16.2052 47.9365 18.4735 47.9365 21.314C47.9365 24.1136 48.5332 26.3615 49.7059 28.0167C50.8786 29.6924 52.5245 30.5303 54.6024 30.5303C56.6803 30.5303 58.3057 29.6924 59.4989 27.9963C60.6716 26.3002 61.2683 24.0727 61.2683 21.314Z" fill="#3C5375"/>
<path id="Vector_11" d="M66.35 51.3947C66.35 54.3373 65.3213 56.7896 63.2845 58.7514C61.2271 60.7131 58.676 61.694 55.6105 61.694C52.5451 61.694 49.9734 60.7131 47.9366 58.7514C45.8792 56.7896 44.8711 54.3373 44.8711 51.3947C44.8711 48.4111 45.8998 45.9385 47.9366 43.9767C49.9734 42.0149 52.5451 41.034 55.6311 41.034C58.7171 41.034 61.2888 42.0149 63.3256 43.9767C65.3419 45.9385 66.35 48.4111 66.35 51.3947ZM62.2558 51.4151C62.2558 48.6359 61.6592 46.388 60.4659 44.6715C59.2726 42.9549 57.6473 42.1171 55.59 42.1171C53.5326 42.1171 51.9073 42.9549 50.714 44.6306C49.5207 46.3063 48.9241 48.5746 48.9241 51.4151C48.9241 54.2147 49.5207 56.4626 50.6934 58.1179C51.8661 59.7935 53.512 60.6314 55.59 60.6314C57.6679 60.6314 59.2932 59.7935 60.4865 58.0974C61.6797 56.4013 62.2558 54.1739 62.2558 51.4151Z" fill="#3C5375"/>
<path id="Vector_12" d="M59.4783 29.9785C60.7538 31.5316 63.9839 36.4156 59.6223 42.1171" stroke="#3C5375" stroke-width="2" stroke-miterlimit="10" stroke-linecap="round"/>
</g>
</g>
</g>
</svg>
